<svg width="17" height="16" viewBox="0 0 17 16" fill="none" xmlns="http://www.w3.org/2000/svg">
<path d="M15.375 2H2.375C1.53125 2 0.875 2.6875 0.875 3.5V12.5C0.875 13.3438 1.53125 14 2.375 14H15.375C16.1875 14 16.875 13.3438 16.875 12.5V3.5C16.875 2.6875 16.1875 2 15.375 2ZM15.375 3.5V4.78125C14.6562 5.375 13.5312 6.25 11.1562 8.125C10.625 8.53125 9.59375 9.53125 8.875 9.5C8.125 9.53125 7.09375 8.53125 6.5625 8.125C4.1875 6.25 3.0625 5.375 2.375 4.78125V3.5H15.375ZM2.375 12.5V6.71875C3.0625 7.28125 4.09375 8.09375 5.625 9.3125C6.3125 9.84375 7.53125 11.0312 8.875 11C10.1875 11.0312 11.375 9.84375 12.0938 9.3125C13.625 8.09375 14.6562 7.28125 15.375 6.71875V12.5H2.375Z" fill="white"/>
</svg>
